<?xml version="1.0" encoding="UTF-8"?>
<svg version="1.1" xmlns="http://www.w3.org/2000/svg" width="100" height="100">
<path d="M0 0 C0 0.99 0 1.98 0 3 C-1.10794922 3.20302734 -1.10794922 3.20302734 -2.23828125 3.41015625 C-12.32417722 5.55036543 -21.33609507 9.79062853 -27.78125 18.109375 C-30.61383462 22.50351269 -33.18463031 26.73827873 -32.75 32.0625 C-32.5025 32.701875 -32.255 33.34125 -32 34 C-30.02 34 -28.04 34 -26 34 C-26 35.32 -26 36.64 -26 38 C-27.485 38.495 -27.485 38.495 -29 39 C-28.67 41.31 -28.34 43.62 -28 46 C-28.99 46.495 -28.99 46.495 -30 47 C-31.68076231 46.36971413 -33.34795544 45.70211894 -35 45 C-35.66 45 -36.32 45 -37 45 C-37 45.66 -37 46.32 -37 47 C-36.34 47 -35.68 47 -35 47 C-34.81824219 47.65226562 -34.63648437 48.30453125 -34.44921875 48.9765625 C-33.02533404 53.92730011 -31.50592766 58.46546423 -29 63 C-28.67 59.7 -28.34 56.4 -28 53 C-26.35 53 -24.7 53 -23 53 C-23 50.03 -23 47.06 -23 44 C-23.66 44 -24.32 44 -25 44 C-25.04254356 42.00045254 -25.04080783 39.99958364 -25 38 C-24.67 37.67 -24.34 37.34 -24 37 C-23.83946185 35.12678052 -23.83946185 35.12678052 -23.875 33 C-23.87242188 32.278125 -23.86984375 31.55625 -23.8671875 30.8125 C-23.80304724 28.97910585 -23.80304724 28.97910585 -25 28 C-25.04080783 26.00041636 -25.04254356 23.99954746 -25 22 C-24.34 22 -23.68 22 -23 22 C-22.34 20.68 -21.68 19.36 -21 18 C-20.34 18 -19.68 18 -19 18 C-19 16.35 -19 14.7 -19 13 C-18.01 13 -17.02 13 -16 13 C-15 16 -14 19 -13 22 C-12.34 22 -11.68 22 -11 22 C-10.95745644 23.99954746 -10.95919217 26.00041636 -11 28 C-11.495 28.495 -11.495 28.495 -12 29 C-12.16053815 30.87321948 -12.16053815 30.87321948 -12.125 33 C-12.12757812 33.721875 -12.13015625 34.44375 -12.1328125 35.1875 C-12.19695276 37.02089415 -12.19695276 37.02089415 -11 38 C-10.95919217 39.99958364 -10.95745644 42.00045254 -11 44 C-11.66 44 -12.32 44 -13 44 C-13 46.97 -13 49.94 -13 53 C-10.61470322 52.08829718 -10.61470322 52.08829718 -9.75 48.75 C-8.01039498 44.4800604 -5.80528015 42.5875905 -2 40 C0.875 39.1875 0.875 39.1875 3 39 C3 37.35 3 35.7 3 34 C3.99 34 4.98 34 6 34 C6 35.65 6 37.3 6 39 C6.845625 39.04125 7.69125 39.0825 8.5625 39.125 C13.12148981 40.28547013 15.93838057 42.45539782 19 46 C19.68960962 47.99220557 20.36079057 49.99105606 21 52 C22.65 52.66 24.3 53.32 26 54 C26.495 62.415 26.495 62.415 27 71 C35.03316719 62.56517445 38.94663272 55.42861001 41 44 C41.99 44 42.98 44 44 44 C44.70144623 59.35387849 42.30313952 71.97896954 32.1875 84.1875 C27.42500864 89.25724887 22.17901837 92.8499122 16 96 C15.23816406 96.41507812 14.47632812 96.83015625 13.69140625 97.2578125 C3.226061 102.04675449 -12.40087962 102.06370093 -23.25 98.375 C-24.85969198 97.63840495 -26.44552938 96.84693662 -28 96 C-29.28197266 95.34644531 -29.28197266 95.34644531 -30.58984375 94.6796875 C-42.97242456 87.86461295 -51.16074769 77.07807264 -55.3046875 63.6015625 C-58.15106677 48.85795751 -56.4319445 35.0949075 -48.6875 22.1875 C-41.4459897 11.53911883 -31.49527795 3.81696817 -18.8671875 0.421875 C-12.62293246 -0.49689822 -6.291485 -0.21075694 0 0 Z " fill="#58351C" transform="translate(56,0)"/>
<path d="M0 0 C-0.72445312 0.37511719 -1.44890625 0.75023437 -2.1953125 1.13671875 C-3.16210938 1.64847656 -4.12890625 2.16023437 -5.125 2.6875 C-6.07632813 3.18636719 -7.02765625 3.68523438 -8.0078125 4.19921875 C-14.10179805 7.86674791 -17.91602757 11.72715484 -21.25 17.875 C-21.58773438 18.46152344 -21.92546875 19.04804688 -22.2734375 19.65234375 C-24.53469403 23.70301982 -25.88167015 27.53809211 -27 32 C-28.65 32 -30.3 32 -32 32 C-31.319375 32.515625 -30.63875 33.03125 -29.9375 33.5625 C-28 36 -28 36 -28.25 39.75 C-28.4975 40.8225 -28.745 41.895 -29 43 C-27.515 42.505 -27.515 42.505 -26 42 C-25.87625 43.670625 -25.87625 43.670625 -25.75 45.375 C-24.29062435 56.15921743 -19.1902585 63.89063275 -11 71 C0.12319497 77.89286687 10.16112893 79.21625783 23 78 C33.73637819 75.40605381 42.14279597 69.28539888 48.0625 60.0625 C49.0583032 58.38476355 50.04364348 56.70053104 51 55 C52.86134247 59.855676 50.50120196 63.47196497 48.51953125 67.96484375 C46.44779652 72.10298742 44.03166344 75.5211662 41 79 C40.54625 79.58136719 40.0925 80.16273437 39.625 80.76171875 C33.66067399 87.6735028 22.89191138 93.17279179 14 95 C3.71047732 95.62206232 -5.62117229 95.80927108 -15 91 C-15.84820313 90.57589844 -16.69640625 90.15179688 -17.5703125 89.71484375 C-30.06254367 82.8574875 -37.26099621 72.7329439 -41.875 59.48828125 C-44.99195639 47.43172076 -42.93451038 34.35323757 -37.4375 23.3125 C-30.2993446 11.36347101 -19.23402991 3.35228093 -5.91943359 -0.62084961 C-3.65361459 -1.06842235 -2.17783883 -0.70001962 0 0 Z " fill="#FBDFA4" transform="translate(45,3)"/>
<path d="M0 0 C-0.72445312 0.37511719 -1.44890625 0.75023437 -2.1953125 1.13671875 C-3.16210938 1.64847656 -4.12890625 2.16023437 -5.125 2.6875 C-6.55199219 3.43580078 -6.55199219 3.43580078 -8.0078125 4.19921875 C-14.10179805 7.86674791 -17.91602757 11.72715484 -21.25 17.875 C-21.58773438 18.46152344 -21.92546875 19.04804688 -22.2734375 19.65234375 C-24.53469403 23.70301982 -25.88167015 27.53809211 -27 32 C-28.65 32 -30.3 32 -32 32 C-31.319375 32.515625 -30.63875 33.03125 -29.9375 33.5625 C-28 36 -28 36 -28.25 39.75 C-28.62125 41.35875 -28.62125 41.35875 -29 43 C-27.515 42.505 -27.515 42.505 -26 42 C-25.87625 43.670625 -25.87625 43.670625 -25.75 45.375 C-24.29062435 56.15921743 -19.1902585 63.89063275 -11 71 C0.12319497 77.89286687 10.16112893 79.21625783 23 78 C33.73637819 75.40605381 42.14279597 69.28539888 48.0625 60.0625 C49.0583032 58.38476355 50.04364348 56.70053104 51 55 C51.93423645 58.01031744 52.04449911 58.86650268 51 62 C50.34 62 49.68 62 49 62 C48.73058594 62.73476562 48.46117188 63.46953125 48.18359375 64.2265625 C43.89882599 74.26677739 35.79266467 79.77085702 26.22265625 84.3203125 C15.90224808 88.36919691 3.88434128 88.96780798 -6.5 84.875 C-8.35886536 83.96718203 -10.19491164 83.01052952 -12 82 C-12.82113281 81.54238281 -13.64226563 81.08476563 -14.48828125 80.61328125 C-24.73670563 74.32643268 -30.34111422 65.47020292 -34.3125 54.3125 C-37.09491417 41.12278669 -34.93809081 28.72496931 -27.8046875 17.45703125 C-23.20928477 11.20051973 -17.66481369 5.96715101 -11 2 C-10.01 1.34 -9.02 0.68 -8 0 C-4.91319647 -1.09531738 -3.1120202 -0.86408912 0 0 Z " fill="#FBC85D" transform="translate(45,3)"/>
<path d="M0 0 C0 0.99 0 1.98 0 3 C-1.10794922 3.20302734 -1.10794922 3.20302734 -2.23828125 3.41015625 C-12.32417722 5.55036543 -21.33609507 9.79062853 -27.78125 18.109375 C-30.61383462 22.50351269 -33.18463031 26.73827873 -32.75 32.0625 C-32.5025 32.701875 -32.255 33.34125 -32 34 C-30.02 34 -28.04 34 -26 34 C-26 35.32 -26 36.64 -26 38 C-27.485 38.495 -27.485 38.495 -29 39 C-28.67 41.31 -28.34 43.62 -28 46 C-28.99 46.495 -28.99 46.495 -30 47 C-31.1446875 46.505 -31.1446875 46.505 -32.3125 46 C-35.38456102 44.85690753 -36.89991179 45.11426051 -40 46 C-39.67 43.69 -39.34 41.38 -39 39 C-40.32 38.34 -41.64 37.68 -43 37 C-43 36.34 -43 35.68 -43 35 C-41.35 35 -39.7 35 -38 35 C-37.814375 33.7625 -37.62875 32.525 -37.4375 31.25 C-34.90006847 20.13779983 -28.39042867 12.15234982 -19 6 C-17.01412499 4.8399344 -15.1225693 3.89371339 -13 3 C-25.33519923 4.88164056 -36.31819026 11.11696992 -44 21 C-51.78496167 32.77456774 -54.72286502 44.98235059 -52.53515625 58.97265625 C-50.00172862 70.59044568 -44.59697452 80.75276615 -35 88 C-21.86508425 95.90517989 -8.5093519 99.77564412 6.7578125 96.09375 C13.41873002 93.63724141 19.43236812 90.40588192 25 86 C25.61359375 85.52304688 26.2271875 85.04609375 26.859375 84.5546875 C34.49716638 77.82937562 39.22217086 66.87682858 41 57 C40.34 56.67 39.68 56.34 39 56 C39.66 52.04 40.32 48.08 41 44 C41.99 44 42.98 44 44 44 C44.70144623 59.35387849 42.30313952 71.97896954 32.1875 84.1875 C27.42500864 89.25724887 22.17901837 92.8499122 16 96 C15.23816406 96.41507812 14.47632812 96.83015625 13.69140625 97.2578125 C3.226061 102.04675449 -12.40087962 102.06370093 -23.25 98.375 C-24.85969198 97.63840495 -26.44552938 96.84693662 -28 96 C-29.28197266 95.34644531 -29.28197266 95.34644531 -30.58984375 94.6796875 C-42.97242456 87.86461295 -51.16074769 77.07807264 -55.3046875 63.6015625 C-58.15106677 48.85795751 -56.4319445 35.0949075 -48.6875 22.1875 C-41.4459897 11.53911883 -31.49527795 3.81696817 -18.8671875 0.421875 C-12.62293246 -0.49689822 -6.291485 -0.21075694 0 0 Z " fill="#552D1F" transform="translate(56,0)"/>
<path d="M0 0 C15.84 0 31.68 0 48 0 C48 2.31 48 4.62 48 7 C47.0409375 7.86625 47.0409375 7.86625 46.0625 8.75 C42.67033718 12.45054126 43.16738649 17.14579174 43 22 C40.69 22.33 38.38 22.66 36 23 C35.94392578 21.75283203 35.94392578 21.75283203 35.88671875 20.48046875 C35.82097656 19.39378906 35.75523438 18.30710937 35.6875 17.1875 C35.62949219 16.10855469 35.57148437 15.02960938 35.51171875 13.91796875 C35.21878537 11.0204275 35.21878537 11.0204275 33.65234375 9.1015625 C31.89624531 7.69075103 31.89624531 7.69075103 28.875 8.1875 C27.451875 8.5896875 27.451875 8.5896875 26 9 C24.58365167 11.83269666 24.6536995 14.47466438 24.4375 17.625 C24.35371094 18.81351563 24.26992188 20.00203125 24.18359375 21.2265625 C24.09271484 22.59941406 24.09271484 22.59941406 24 24 C21.69 23.67 19.38 23.34 17 23 C16.96261719 22.16855469 16.92523438 21.33710937 16.88671875 20.48046875 C16.82097656 19.39378906 16.75523438 18.30710937 16.6875 17.1875 C16.62949219 16.10855469 16.57148437 15.02960938 16.51171875 13.91796875 C16.21733457 11.02069314 16.21733457 11.02069314 14.65625 9.09375 C12.88378781 7.67356829 12.88378781 7.67356829 9.8125 8.3125 C8.4203125 8.6528125 8.4203125 8.6528125 7 9 C6.34 11.64 5.68 14.28 5 17 C3.35 16.01 1.7 15.02 0 14 C0 9.38 0 4.76 0 0 Z " fill="#399248" transform="translate(31,56)"/>
<path d="M0 0 C2.9375 0.8125 2.9375 0.8125 4.9375 3.8125 C5.1328125 6.73046875 5.1328125 6.73046875 5.0625 10 C5.04445313 11.08667969 5.02640625 12.17335938 5.0078125 13.29296875 C4.97300781 14.54013672 4.97300781 14.54013672 4.9375 15.8125 C7.2475 16.1425 9.5575 16.4725 11.9375 16.8125 C11.89109375 15.92046875 11.8446875 15.0284375 11.796875 14.109375 C11.74273437 12.35367188 11.74273437 12.35367188 11.6875 10.5625 C11.64109375 9.40234375 11.5946875 8.2421875 11.546875 7.046875 C11.9375 3.8125 11.9375 3.8125 13.75390625 1.37890625 C15.9375 -0.1875 15.9375 -0.1875 19.125 0 C21.9375 0.8125 21.9375 0.8125 22.9375 1.8125 C23.06403198 4.30488569 23.12269825 6.75720441 23.125 9.25 C23.13724609 9.94416016 23.14949219 10.63832031 23.16210938 11.35351562 C23.16739842 13.17470901 23.05919207 14.9953692 22.9375 16.8125 C19.80006393 19.94993607 16.32197136 19.24672025 12.04418945 19.25292969 C5.48192985 19.08083562 -0.50705452 17.40887016 -6.0625 13.8125 C-7.64494066 11.59708307 -8.10514735 10.45830275 -7.92578125 7.7421875 C-7.74402344 7.06414062 -7.56226563 6.38609375 -7.375 5.6875 C-7.12169922 4.66269531 -7.12169922 4.66269531 -6.86328125 3.6171875 C-5.36297416 0.23600763 -3.49496593 -0.21397751 0 0 Z " fill="#4D2F1D" transform="translate(43.0625,63.1875)"/>
<path d="M0 0 C3.78023095 2.22567945 6.30237097 3.79707422 7.90625 8.01953125 C7.90625 9.00953125 7.90625 9.99953125 7.90625 11.01953125 C-0.67375 11.01953125 -9.25375 11.01953125 -18.09375 11.01953125 C-16.92303517 5.1659571 -15.0196741 3.00160887 -10.15625 -0.29296875 C-6.44529609 -1.52995339 -3.60743099 -1.6893007 0 0 Z " fill="#F9C55A" transform="translate(66.09375,41.98046875)"/>
<path d="M0 0 C0.66 0.33 1.32 0.66 2 1 C0.98679687 2.14275391 0.98679687 2.14275391 -0.046875 3.30859375 C-7.56266471 11.74506289 -7.56266471 11.74506289 -12 22 C-11.90669742 24.93003637 -11.90669742 24.93003637 -11 27 C-9.02 27 -7.04 27 -5 27 C-5 28.32 -5 29.64 -5 31 C-5.99 31.33 -6.98 31.66 -8 32 C-7.67 34.31 -7.34 36.62 -7 39 C-7.99 39.495 -7.99 39.495 -9 40 C-9.763125 39.67 -10.52625 39.34 -11.3125 39 C-14.38456102 37.85690753 -15.89991179 38.11426051 -19 39 C-18.67 36.69 -18.34 34.38 -18 32 C-19.32 31.34 -20.64 30.68 -22 30 C-22 29.34 -22 28.68 -22 28 C-20.35 28 -18.7 28 -17 28 C-16.814375 26.7625 -16.62875 25.525 -16.4375 24.25 C-14.15953829 14.15050542 -8.23741091 6.07642779 0 0 Z " fill="#562B19" transform="translate(35,7)"/>
<path d="M0 0 C0.75 1.75 0.75 1.75 1 4 C-0.30305819 5.36293614 -1.64175118 6.69205669 -3 8 C-4.08007945 9.4453618 -5.14241348 10.90413749 -6.1875 12.375 C-11.79176865 19.63670129 -20.01062194 24.91223024 -29 27 C-32.74380744 27.02375512 -36.31543576 26.6444485 -40 26 C-40 25.67 -40 25.34 -40 25 C-37.03 25 -34.06 25 -31 25 C-31 20.71 -31 16.42 -31 12 C-30.67 12 -30.34 12 -30 12 C-30 15.96 -30 19.92 -30 24 C-26.535 23.505 -26.535 23.505 -23 23 C-23.04640625 22.25234375 -23.0928125 21.5046875 -23.140625 20.734375 C-23.44192451 12.51320266 -23.44192451 12.51320266 -21.0625 9.75 C-20.381875 9.1725 -19.70125 8.595 -19 8 C-18.19234122 4.35278304 -18.19234122 4.35278304 -18 1 C-17.67 1 -17.34 1 -17 1 C-15.875 7.75 -15.875 7.75 -17 10 C-17.039992 11.99960012 -17.04346799 14.00047242 -17 16 C-13.32217852 15.44348754 -11.8611688 14.12980368 -9.5 11.3125 C-8.89800781 10.59578125 -8.29601562 9.8790625 -7.67578125 9.140625 C-6.25233647 7.3223319 -4.94227786 5.49871153 -3.6875 3.5625 C-2 1 -2 1 0 0 Z " fill="#542F1C" transform="translate(97,55)"/>
<path d="M0 0 C0.99 0 1.98 0 3 0 C3.33 1.65 3.66 3.3 4 5 C5.98 5 7.96 5 10 5 C9.38722388 7.96175123 8.74627478 9.38058783 7 12 C6.83286431 14.62531524 6.83286431 14.62531524 7 17 C5.948125 16.814375 4.89625 16.62875 3.8125 16.4375 C0.42880118 16.04920669 -1.76425888 16.11752515 -5 17 C-4.67 14.69 -4.34 12.38 -4 10 C-5.32 9.34 -6.64 8.68 -8 8 C-8 7.01 -8 6.02 -8 5 C-6.02 5 -4.04 5 -2 5 C-1.34 3.35 -0.68 1.7 0 0 Z " fill="#4F2418" transform="translate(79,18)"/>
<path d="M0 0 C0.99 0 1.98 0 3 0 C3 1.65 3 3.3 3 5 C3.845625 5.04125 4.69125 5.0825 5.5625 5.125 C10.12148981 6.28547013 12.93838057 8.45539782 16 12 C16.68960962 13.99220557 17.36079057 15.99105606 18 18 C20.475 18.99 20.475 18.99 23 20 C23 25.61 23 31.22 23 37 C22.34 37 21.68 37 21 37 C19.875 30.25 19.875 30.25 21 28 C20.71887936 25.99199544 20.38932033 23.98985949 20 22 C18.02 21.67 16.04 21.34 14 21 C13.9175 19.9275 13.835 18.855 13.75 17.75 C12.92982288 13.64911442 12.24283524 12.50161575 9 10 C5.17162861 7.71584564 2.50625584 7.80120823 -1.8203125 8.3828125 C-5.14861885 9.32523616 -6.79938523 11.42213699 -9 14 C-11.3125 15.3125 -11.3125 15.3125 -13 16 C-11.60588807 11.12060824 -9.09654343 8.89167771 -5 6 C-2.125 5.1875 -2.125 5.1875 0 5 C0 3.35 0 1.7 0 0 Z " fill="#562C19" transform="translate(59,34)"/>
<path d="M0 0 C4.55555556 0.55555556 4.55555556 0.55555556 6 2 C6.07258946 4.18639453 6.08373783 6.37500389 6.0625 8.5625 C6.05347656 9.76003906 6.04445313 10.95757812 6.03515625 12.19140625 C6.02355469 13.11824219 6.01195313 14.04507813 6 15 C3.36 15 0.72 15 -2 15 C-2.05386629 12.87527424 -2.09273071 10.75016348 -2.125 8.625 C-2.14820313 7.44164063 -2.17140625 6.25828125 -2.1953125 5.0390625 C-2 2 -2 2 0 0 Z " fill="#F6AC0F" transform="translate(59,65)"/>
<path d="M0 0 C0.74507812 0.00451172 1.49015625 0.00902344 2.2578125 0.01367188 C4.0885764 0.02540754 5.91929873 0.0433415 7.75 0.0625 C7.75 1.0525 7.75 2.0425 7.75 3.0625 C6.98816406 3.22105469 6.22632812 3.37960938 5.44140625 3.54296875 C-1.51506019 5.11490436 -7.23641914 7.22049001 -13.25 11.0625 C-12.2302693 7.28949642 -11.59127338 6.26043856 -8.125 4.25 C-7.17625 3.858125 -6.2275 3.46625 -5.25 3.0625 C-8.55 3.3925 -11.85 3.7225 -15.25 4.0625 C-10.55112568 -0.63637432 -6.40173494 -0.07351816 0 0 Z " fill="#4D2418" transform="translate(48.25,-0.0625)"/>
<path d="M0 0 C4.55555556 0.55555556 4.55555556 0.55555556 6 2 C6.07226502 3.85287502 6.0838122 5.70833878 6.0625 7.5625 C6.05347656 8.57441406 6.04445313 9.58632812 6.03515625 10.62890625 C6.02355469 11.41136719 6.01195312 12.19382812 6 13 C-0.875 11.125 -0.875 11.125 -2 10 C-2.27314815 4.26388889 -2.27314815 4.26388889 -2 2 C-1.34 1.34 -0.68 0.68 0 0 Z " fill="#F3A90F" transform="translate(40,65)"/>
<path d="M0 0 C0.33 0.66 0.66 1.32 1 2 C1.99 2 2.98 2 4 2 C4.33 2.66 4.66 3.32 5 4 C5.99 4.66 6.98 5.32 8 6 C7.34 6 6.68 6 6 6 C6 7.32 6 8.64 6 10 C5.01 10.33 4.02 10.66 3 11 C2.484375 11.515625 1.96875 12.03125 1.4375 12.5625 C0.963125 13.036875 0.48875 13.51125 0 14 C-0.66 14 -1.32 14 -2 14 C-1.67 11.69 -1.34 9.38 -1 7 C-2.32 6.34 -3.64 5.68 -5 5 C-5 4.34 -5 3.68 -5 3 C-3.35 3 -1.7 3 0 3 C0 2.01 0 1.02 0 0 Z " fill="#61351B" transform="translate(18,32)"/>
<path d="M0 0 C0.99 0 1.98 0 3 0 C3 5.28 3 10.56 3 16 C2.01 16.33 1.02 16.66 0 17 C-0.33333333 15.66666667 -0.66666667 14.33333333 -1 13 C-1.1959375 12.3915625 -1.391875 11.783125 -1.59375 11.15625 C-2.08294489 8.55975406 -1.7007506 6.80300241 -1.0625 4.25 C-0.86785156 3.45078125 -0.67320313 2.6515625 -0.47265625 1.828125 C-0.31667969 1.22484375 -0.16070312 0.6215625 0 0 Z " fill="#4D2418" transform="translate(97,44)"/>
<path d="M0 0 C1.98 0 3.96 0 6 0 C6 3.3 6 6.6 6 10 C5.34 10 4.68 10 4 10 C4 8.35 4 6.7 4 5 C3.34 5 2.68 5 2 5 C2 6.65 2 8.3 2 10 C1.34 10 0.68 10 0 10 C0 6.7 0 3.4 0 0 Z " fill="#3C8945" transform="translate(35,28)"/>
<path d="M0 0 C2.31 0 4.62 0 7 0 C7 2.31 7 4.62 7 7 C4.69 6.67 2.38 6.34 0 6 C0 4.02 0 2.04 0 0 Z " fill="#2B6D37" transform="translate(48,73)"/>
<path d="M0 0 C1.98 0 3.96 0 6 0 C6 2.97 6 5.94 6 9 C5.34 9 4.68 9 4 9 C4 7.68 4 6.36 4 5 C3.34 5 2.68 5 2 5 C2 6.32 2 7.64 2 9 C1.34 9 0.68 9 0 9 C0 6.03 0 3.06 0 0 Z " fill="#3F8D46" transform="translate(35,44)"/>
<path d="M0 0 C0.66 0.33 1.32 0.66 2 1 C0.23672285 3.15245547 -1.53498249 5.29685786 -3.3125 7.4375 C-3.81201172 8.04916016 -4.31152344 8.66082031 -4.82617188 9.29101562 C-8.66015625 13.88671875 -8.66015625 13.88671875 -12 15 C-9.87209933 8.42285246 -5.45517519 4.05241586 0 0 Z " fill="#5A301E" transform="translate(35,7)"/>
<path d="M0 0 C0.66 0 1.32 0 2 0 C2 0.66 2 1.32 2 2 C3.32 2.33 4.64 2.66 6 3 C5.34 4.65 4.68 6.3 4 8 C2.02 8 0.04 8 -2 8 C-2.66 6.02 -3.32 4.04 -4 2 C-2.68 2 -1.36 2 0 2 C0 1.34 0 0.68 0 0 Z " fill="#DC9610" transform="translate(79,23)"/>
<path d="M0 0 C2.31 0 4.62 0 7 0 C7 1.65 7 3.3 7 5 C4.69 5.33 2.38 5.66 0 6 C0 4.02 0 2.04 0 0 Z " fill="#2B6C37" transform="translate(67,73)"/>
<path d="M0 0 C0.66 0.33 1.32 0.66 2 1 C-1.45436433 4.59253891 -5.19364503 7.79239749 -9 11 C-9.33 10.34 -9.66 9.68 -10 9 C-9.0919838 7.86800647 -8.17316174 6.74467637 -7.25 5.625 C-6.73953125 4.99851562 -6.2290625 4.37203125 -5.703125 3.7265625 C-3.89125541 1.88975893 -2.41535913 0.89348651 0 0 Z " fill="#4B2317" transform="translate(56,39)"/>
<path d="M0 0 C0.66 0 1.32 0 2 0 C2.66 2.31 3.32 4.62 4 7 C2.625 8.5 2.625 8.5 1 10 C0.34 10 -0.32 10 -1 10 C-1.02689216 8.52093108 -1.04634621 7.04172517 -1.0625 5.5625 C-1.07410156 4.73878906 -1.08570312 3.91507812 -1.09765625 3.06640625 C-1 1 -1 1 0 0 Z " fill="#EAA410" transform="translate(77,66)"/>
<path d="M0 0 C1.65 1.32 3.3 2.64 5 4 C4.34 4 3.68 4 3 4 C2.67 5.32 2.34 6.64 2 8 C0.68 8 -0.64 8 -2 8 C-2.66 6.35 -3.32 4.7 -4 3 C-3.01 2.67 -2.02 2.34 -1 2 C-0.67 1.34 -0.34 0.68 0 0 Z " fill="#F4AA0F" transform="translate(21,34)"/>
<path d="M0 0 C0.99 0 1.98 0 3 0 C4.125 5.625 4.125 5.625 3 9 C1.68 9 0.36 9 -1 9 C-0.67 6.03 -0.34 3.06 0 0 Z " fill="#835324" transform="translate(37,13)"/>
<path d="M0 0 C0.33 0 0.66 0 1 0 C1 3.96 1 7.92 1 12 C1.66 12.33 2.32 12.66 3 13 C2.67 13.66 2.34 14.32 2 15 C-1.63 14.67 -5.26 14.34 -9 14 C-9 13.67 -9 13.34 -9 13 C-6.03 13 -3.06 13 0 13 C0 8.71 0 4.42 0 0 Z " fill="#603D1C" transform="translate(66,67)"/>
<path d="M0 0 C0.33 1.65 0.66 3.3 1 5 C-1 6 -1 6 -4.125 5.0625 C-5.07375 4.711875 -6.0225 4.36125 -7 4 C-6.67 3.01 -6.34 2.02 -6 1 C-3.90006779 0.25486277 -2.22568901 0 0 0 Z " fill="#472117" transform="translate(27,41)"/>
<path d="M0 0 C0.33 0 0.66 0 1 0 C1 5.28 1 10.56 1 16 C0.34 16 -0.32 16 -1 16 C-1.38063221 13.6739143 -1.71269945 11.33944736 -2 9 C-1.67 8.67 -1.34 8.34 -1 8 C-0.76924918 6.65252916 -0.58846937 5.29622435 -0.4375 3.9375 C-0.293125 2.638125 -0.14875 1.33875 0 0 Z " fill="#492414" transform="translate(81,55)"/>
<path d="M0 0 C0.33 1.32 0.66 2.64 1 4 C-0.65 5.32 -2.3 6.64 -4 8 C-4.33 7.01 -4.66 6.02 -5 5 C-3.35 3.35 -1.7 1.7 0 0 Z " fill="#643B25" transform="translate(97,55)"/>
<path d="M0 0 C-1.28913487 0.67154933 -2.58140204 1.33708859 -3.875 2 C-4.59429687 2.37125 -5.31359375 2.7425 -6.0546875 3.125 C-8 4 -8 4 -10 4 C-10.33 3.01 -10.66 2.02 -11 1 C-4.03571429 -1.27678571 -4.03571429 -1.27678571 0 0 Z " fill="#CEA35D" transform="translate(45,3)"/>
<path d="M0 0 C1.98 0 3.96 0 6 0 C6 0.99 6 1.98 6 3 C4.02 3 2.04 3 0 3 C0 2.01 0 1.02 0 0 Z " fill="#2D7039" transform="translate(35,44)"/>
<path d="M0 0 C1.98 0 3.96 0 6 0 C6 0.99 6 1.98 6 3 C4.02 3 2.04 3 0 3 C0 2.01 0 1.02 0 0 Z " fill="#2D6835" transform="translate(35,28)"/>
<path d="M0 0 C2.64 0.99 5.28 1.98 8 3 C7.67 3.66 7.34 4.32 7 5 C1.25 3.25 1.25 3.25 -1 1 C-0.67 0.67 -0.34 0.34 0 0 Z " fill="#683C1F" transform="translate(38,75)"/>
</svg>
